<svg xmlns="http://www.w3.org/2000/svg" viewBox="0 0 45 55">
  <defs>
    <style>.cls-1{opacity:0.7;}.cls-2{fill:#1a1818;stroke:#4293d3;stroke-miterlimit:10;}</style>
  </defs>
  <g id="Layer_2" data-name="Layer 2">
    <g id="Layer_1-2" data-name="Layer 1">
      <g class="cls-1">
        <path class="cls-2" d="M49.71,42.17a12.37,12.37,0,0,1-6,11q-6,3.86-17.13,3.85-10.38,0-15.74-3.13A10,10,0,0,1,5.5,44.83a7.65,7.65,0,0,1,2.66-6A10,10,0,0,1,15,36.48a12.56,12.56,0,0,1,7.67,2.12,6.79,6.79,0,0,1,2.85,5.73,5.37,5.37,0,0,1-1.88,4.32,8.46,8.46,0,0,1-5.25,1.73,1.28,1.28,0,0,0-.43.93.88.88,0,0,0,.46.79,2.19,2.19,0,0,0,1.19.29,8.37,8.37,0,0,0,6-2.3A7.65,7.65,0,0,0,28,44.33a8.62,8.62,0,0,0-1.16-4.65,10,10,0,0,0-3.7-3.27,36.83,36.83,0,0,0-6.95-2.81,15.21,15.21,0,0,1-7.49-4.54,11.17,11.17,0,0,1-2.52-7.41A11.88,11.88,0,0,1,8.92,14,17.9,17.9,0,0,1,16.7,8.69,32.9,32.9,0,0,1,28.54,6.74q9.51,0,14.87,3.24t5.36,9A7.52,7.52,0,0,1,46,25a10.73,10.73,0,0,1-7.16,2.34,11.56,11.56,0,0,1-7.31-2.16,6.86,6.86,0,0,1-2.77-5.69,5.35,5.35,0,0,1,1.87-4.32,8.48,8.48,0,0,1,5.25-1.73,1.31,1.31,0,0,0,.44-.94.9.9,0,0,0-.47-.79,2.25,2.25,0,0,0-1.19-.29,8.57,8.57,0,0,0-4.21,1.05,8.21,8.21,0,0,0-3.06,2.88,7.59,7.59,0,0,0-1.15,4.14,8.17,8.17,0,0,0,2.66,6.37q2.67,2.41,9.14,4.21,6,1.66,8.82,4.61A10.34,10.34,0,0,1,49.71,42.17Z">
        </path>

      </g>
      <path class="cls-2" d="M44.71,40.75a12.37,12.37,0,0,1-6,11q-6,3.86-17.13,3.85-10.38,0-15.74-3.13A10,10,0,0,1,.5,43.41a7.65,7.65,0,0,1,2.66-6A10,10,0,0,1,10,35.06a12.56,12.56,0,0,1,7.67,2.12,6.79,6.79,0,0,1,2.85,5.73,5.37,5.37,0,0,1-1.88,4.32A8.46,8.46,0,0,1,13.39,49a1.28,1.28,0,0,0-.43.93.88.88,0,0,0,.46.79,2.19,2.19,0,0,0,1.19.29,8.33,8.33,0,0,0,6-2.3A7.65,7.65,0,0,0,23,42.91a8.62,8.62,0,0,0-1.16-4.65A10,10,0,0,0,18.18,35a36.83,36.83,0,0,0-6.95-2.81,15.21,15.21,0,0,1-7.49-4.54,11.17,11.17,0,0,1-2.52-7.41,11.88,11.88,0,0,1,2.7-7.67A17.9,17.9,0,0,1,11.7,7.27,32.9,32.9,0,0,1,23.54,5.32q9.51,0,14.87,3.24t5.36,9a7.52,7.52,0,0,1-2.77,6,10.73,10.73,0,0,1-7.16,2.34,11.56,11.56,0,0,1-7.31-2.16,6.86,6.86,0,0,1-2.77-5.69,5.35,5.35,0,0,1,1.87-4.32A8.48,8.48,0,0,1,30.88,12a1.31,1.31,0,0,0,.44-.94.9.9,0,0,0-.47-.79A2.25,2.25,0,0,0,29.66,10a8.57,8.57,0,0,0-4.21,1.05,8.21,8.21,0,0,0-3.06,2.88,7.59,7.59,0,0,0-1.15,4.14,8.17,8.17,0,0,0,2.66,6.37q2.67,2.41,9.14,4.21,6,1.67,8.82,4.61A10.34,10.34,0,0,1,44.71,40.75Z">
      </path>
    </g>
  </g>
</svg>