<svg xmlns="http://www.w3.org/2000/svg" viewBox="0 0 271.39 57.57"><defs><style>.cls-1{opacity:0.7;}.cls-2{fill:#1a1818;stroke:#4293d3;stroke-miterlimit:10;}</style></defs><g id="Layer_2" data-name="Layer 2"><g id="Layer_1-2" data-name="Layer 1"><g class="cls-1"><path class="cls-2" d="M49.71,42.17a12.37,12.37,0,0,1-6,11q-6,3.86-17.13,3.85-10.38,0-15.74-3.13A10,10,0,0,1,5.5,44.83a7.65,7.65,0,0,1,2.66-6A10,10,0,0,1,15,36.48a12.56,12.56,0,0,1,7.67,2.12,6.79,6.79,0,0,1,2.85,5.73,5.37,5.37,0,0,1-1.88,4.32,8.46,8.46,0,0,1-5.25,1.73,1.28,1.28,0,0,0-.43.93.88.88,0,0,0,.46.79,2.19,2.19,0,0,0,1.19.29,8.37,8.37,0,0,0,6-2.3A7.65,7.65,0,0,0,28,44.33a8.62,8.62,0,0,0-1.16-4.65,10,10,0,0,0-3.7-3.27,36.83,36.83,0,0,0-6.95-2.81,15.21,15.21,0,0,1-7.49-4.54,11.17,11.17,0,0,1-2.52-7.41A11.88,11.88,0,0,1,8.92,14,17.9,17.9,0,0,1,16.7,8.69,32.9,32.9,0,0,1,28.54,6.74q9.51,0,14.87,3.24t5.36,9A7.52,7.52,0,0,1,46,25a10.73,10.73,0,0,1-7.16,2.34,11.56,11.56,0,0,1-7.31-2.16,6.86,6.86,0,0,1-2.77-5.69,5.35,5.35,0,0,1,1.87-4.32,8.48,8.48,0,0,1,5.25-1.73,1.31,1.31,0,0,0,.44-.94.9.9,0,0,0-.47-.79,2.25,2.25,0,0,0-1.19-.29,8.57,8.57,0,0,0-4.21,1.05,8.21,8.21,0,0,0-3.06,2.88,7.59,7.59,0,0,0-1.15,4.14,8.17,8.17,0,0,0,2.66,6.37q2.67,2.41,9.14,4.21,6,1.66,8.82,4.61A10.34,10.34,0,0,1,49.71,42.17Z"/><path class="cls-2" d="M69.22,39.22c0,1.1.94,2.12,2.81,3.06a13.88,13.88,0,0,0,6.26,1.4,14.84,14.84,0,0,0,11.23-4.61,3.5,3.5,0,0,1,.62-.54,1,1,0,0,1,.54-.11h.86a.68.68,0,0,1,.68.36,3.28,3.28,0,0,1,.18,1.3A15,15,0,0,1,90,48.32a17.52,17.52,0,0,1-6.84,6.09,21.18,21.18,0,0,1-9.9,2.3,22.92,22.92,0,0,1-10.51-2.37,18.58,18.58,0,0,1-7.45-6.77,18.36,18.36,0,0,1-2.77-10,18.78,18.78,0,0,1,2.59-9.86,18.1,18.1,0,0,1,7.38-6.81,24,24,0,0,1,11.19-2.48,23.56,23.56,0,0,1,8.68,1.51,14.15,14.15,0,0,1,6.08,4.32,10.11,10.11,0,0,1,2.24,6.48,10,10,0,0,1-3.39,7.74,12.28,12.28,0,0,1-8.57,3.06,11,11,0,0,1-8.42-3.46,1,1,0,0,0-.76.33A1.13,1.13,0,0,0,69.22,39.22Zm2.16-5a1.37,1.37,0,0,0,1.15.57c.87,0,1.3-.48,1.3-1.44V23.16c0-1-.43-1.44-1.3-1.44a1.36,1.36,0,0,0-1.15.58Z"/><path class="cls-2" d="M125.31,56.71q-7.28,0-10.37-6a10.31,10.31,0,0,1-10,6,12.28,12.28,0,0,1-8-2.45,7.9,7.9,0,0,1-3-6.48A6.85,6.85,0,0,1,96.4,42.2c1.66-1.36,4.21-2.29,7.67-2.77q13.25-1.73,13.25-10A8,8,0,0,0,115,23.7a7.31,7.31,0,0,0-5.47-2.41c-1,0-1.51.33-1.51,1a1.42,1.42,0,0,0,.21.72,7,7,0,0,1,5,1.8,6,6,0,0,1,2,4.6,6.67,6.67,0,0,1-2.78,5.48,11.18,11.18,0,0,1-7.09,2.16,10.41,10.41,0,0,1-7-2.2,7.22,7.22,0,0,1-2.59-5.8c0-3.21,1.55-5.79,4.68-7.74s7.24-2.91,12.38-2.91q9.21,0,14,4.46T131.57,36v9a4.08,4.08,0,0,0,.22,1.65.73.73,0,0,0,.72.43,1,1,0,0,0,.93-.57,8.44,8.44,0,0,0,.51-2.23,5.09,5.09,0,0,1,.29-1.48.58.58,0,0,1,.57-.25H136a.65.65,0,0,1,.61.5,5.45,5.45,0,0,1,.18,1.66q0,5.76-3,8.89C131.85,55.67,129,56.71,125.31,56.71ZM113.72,41.16a1.4,1.4,0,0,0-1.16-.58c-.81,0-1.22.48-1.22,1.44v4.61c0,1,.41,1.44,1.22,1.44a1.39,1.39,0,0,0,1.16-.57Z"/><path class="cls-2" d="M139.78,12.94a8.31,8.31,0,0,0-.72-3.86,7,7,0,0,0-2.67-2.48,1.82,1.82,0,0,1-.61-.47.91.91,0,0,1-.11-.47V4.8q0-.72.87-.72h19a2.69,2.69,0,0,1,1.91.54A2.47,2.47,0,0,1,158,6.38V45a4.32,4.32,0,0,0,.21,1.65.73.73,0,0,0,.72.43.91.91,0,0,0,.9-.5,9.65,9.65,0,0,0,.54-2.3,5.48,5.48,0,0,1,.29-1.48.59.59,0,0,1,.57-.25h1.23a.64.64,0,0,1,.61.5,5.76,5.76,0,0,1,.18,1.73q0,5.76-3.1,8.86t-8.85,3.09q-5.55,0-8.53-3.13c-2-2.09-3-5.08-3-9Z"/><path class="cls-2" d="M166.56,19.27V15.74A12.62,12.62,0,0,1,171,5.7q4.4-3.78,11.67-3.78A16.66,16.66,0,0,1,192,4.3a7.14,7.14,0,0,1,3.6,6.19A6,6,0,0,1,193,15.6a12,12,0,0,1-7.09,1.87,11.5,11.5,0,0,1-6.63-1.65,5.26,5.26,0,0,1-2.37-4.54,4.33,4.33,0,0,1,1.58-3.49,6.51,6.51,0,0,1,4.32-1.33.62.62,0,0,0,.18-.36,3.25,3.25,0,0,0,0-.36c0-.68-.51-1-1.51-1a6.51,6.51,0,0,0-4.79,2,6.51,6.51,0,0,0-2,4.79q0,5.25,6.48,7.77H191c.58,0,.86.24.86.72v1.3c0,.48-.28.72-.86.72h-7.2a3.49,3.49,0,0,1,1.08,1.33,5.61,5.61,0,0,1,.29,2.05V53.54a2.43,2.43,0,0,1-.54,1.77,2.67,2.67,0,0,1-1.91.54H169a2.67,2.67,0,0,1-1.91-.54,2.43,2.43,0,0,1-.54-1.77V22h-4.82q-.87,0-.87-.72V20q0-.72.87-.72Z"/><path class="cls-2" d="M206.52,19.27a2.67,2.67,0,0,1,1.91.54,2.43,2.43,0,0,1,.54,1.77V46.34a2.19,2.19,0,0,0,.36,1.3,1.16,1.16,0,0,0,1,.5,1.33,1.33,0,0,0,1.22-.57v-26a2.43,2.43,0,0,1,.54-1.77,2.67,2.67,0,0,1,1.91-.54h13a2.68,2.68,0,0,1,1.87.54,2.31,2.31,0,0,1,.58,1.77V45a4.32,4.32,0,0,0,.21,1.65.75.75,0,0,0,.72.43,1,1,0,0,0,.94-.57,8.14,8.14,0,0,0,.5-2.23,5.94,5.94,0,0,1,.29-1.48.61.61,0,0,1,.58-.25h1.22a.64.64,0,0,1,.61.5,5.45,5.45,0,0,1,.18,1.66q0,5.61-3.09,8.82c-2.07,2.13-4.92,3.2-8.57,3.2a12,12,0,0,1-6.12-1.58,10.44,10.44,0,0,1-4.18-4.47,11.09,11.09,0,0,1-4.46,4.47,13.28,13.28,0,0,1-6.48,1.58q-5.19,0-7.92-3.09c-1.82-2.07-2.74-5-2.74-8.79V28.13a8.26,8.26,0,0,0-.72-3.85,6.88,6.88,0,0,0-2.66-2.49,1.72,1.72,0,0,1-.61-.47.87.87,0,0,1-.11-.46V20c0-.48.29-.72.86-.72Z"/><path class="cls-2" d="M239.79,19.27q6.18,0,8.42,3.67a13.64,13.64,0,0,1,4.68-3.42,15.08,15.08,0,0,1,6-1.11,12.88,12.88,0,0,1,8.64,2.88,9.23,9.23,0,0,1,3.38,7.34,7.62,7.62,0,0,1-2.74,6.09,10.45,10.45,0,0,1-7,2.34,10.77,10.77,0,0,1-7-2.16,6.73,6.73,0,0,1-2.7-5.48,6,6,0,0,1,1.94-4.6,7,7,0,0,1,5-1.8,1.34,1.34,0,0,0,.22-.72c0-.68-.51-1-1.51-1a7.32,7.32,0,0,0-5.48,2.41,8.12,8.12,0,0,0-2.3,5.8,8.3,8.3,0,0,0,1.62,5.07,10.91,10.91,0,0,0,4.64,3.49,2.85,2.85,0,0,1,1.34,1,3.85,3.85,0,0,1,.32,1.83V53.54c0,1.54-.82,2.31-2.45,2.31H240.15a2,2,0,0,1-2.24-2.31V28.13a8.26,8.26,0,0,0-.72-3.85,6.88,6.88,0,0,0-2.66-2.49,1.72,1.72,0,0,1-.61-.47.87.87,0,0,1-.11-.46V20c0-.48.29-.72.86-.72Z"/></g><path class="cls-2" d="M44.71,40.75a12.37,12.37,0,0,1-6,11q-6,3.86-17.13,3.85-10.38,0-15.74-3.13A10,10,0,0,1,.5,43.41a7.65,7.65,0,0,1,2.66-6A10,10,0,0,1,10,35.06a12.56,12.56,0,0,1,7.67,2.12,6.79,6.79,0,0,1,2.85,5.73,5.37,5.37,0,0,1-1.88,4.32A8.46,8.46,0,0,1,13.39,49a1.28,1.28,0,0,0-.43.93.88.88,0,0,0,.46.79,2.19,2.19,0,0,0,1.19.29,8.33,8.33,0,0,0,6-2.3A7.65,7.65,0,0,0,23,42.91a8.62,8.62,0,0,0-1.16-4.65A10,10,0,0,0,18.18,35a36.83,36.83,0,0,0-6.95-2.81,15.21,15.21,0,0,1-7.49-4.54,11.17,11.17,0,0,1-2.52-7.41,11.88,11.88,0,0,1,2.7-7.67A17.9,17.9,0,0,1,11.7,7.27,32.9,32.9,0,0,1,23.54,5.32q9.51,0,14.87,3.24t5.36,9a7.52,7.52,0,0,1-2.77,6,10.73,10.73,0,0,1-7.16,2.34,11.56,11.56,0,0,1-7.31-2.16,6.86,6.86,0,0,1-2.77-5.69,5.35,5.35,0,0,1,1.87-4.32A8.48,8.48,0,0,1,30.88,12a1.31,1.31,0,0,0,.44-.94.9.9,0,0,0-.47-.79A2.25,2.25,0,0,0,29.66,10a8.57,8.57,0,0,0-4.21,1.05,8.21,8.21,0,0,0-3.06,2.88,7.59,7.59,0,0,0-1.15,4.14,8.17,8.17,0,0,0,2.66,6.37q2.67,2.41,9.14,4.21,6,1.67,8.82,4.61A10.34,10.34,0,0,1,44.71,40.75Z"/><path class="cls-2" d="M64.22,37.8c0,1.1.94,2.12,2.81,3.06a13.88,13.88,0,0,0,6.26,1.4,14.84,14.84,0,0,0,11.23-4.61,3.5,3.5,0,0,1,.62-.54,1,1,0,0,1,.54-.11h.86a.68.68,0,0,1,.68.36,3.28,3.28,0,0,1,.18,1.3A15,15,0,0,1,85,46.9,17.52,17.52,0,0,1,78.15,53a21.18,21.18,0,0,1-9.9,2.3,22.92,22.92,0,0,1-10.51-2.37,18.58,18.58,0,0,1-7.45-6.77,18.36,18.36,0,0,1-2.77-10,18.78,18.78,0,0,1,2.59-9.86,18.1,18.1,0,0,1,7.38-6.81A24,24,0,0,1,68.68,17a23.56,23.56,0,0,1,8.68,1.51,14.15,14.15,0,0,1,6.08,4.32,10.11,10.11,0,0,1,2.24,6.48A10,10,0,0,1,82.29,37a12.28,12.28,0,0,1-8.57,3.06,11,11,0,0,1-8.42-3.46,1,1,0,0,0-.76.33A1.13,1.13,0,0,0,64.22,37.8Zm2.16-5a1.37,1.37,0,0,0,1.15.57c.87,0,1.3-.48,1.3-1.44V21.74c0-1-.43-1.44-1.3-1.44a1.36,1.36,0,0,0-1.15.58Z"/><path class="cls-2" d="M120.31,55.29q-7.28,0-10.37-6a10.31,10.31,0,0,1-10,6,12.28,12.28,0,0,1-8-2.45,7.9,7.9,0,0,1-3-6.48,6.85,6.85,0,0,1,2.48-5.58c1.66-1.36,4.21-2.29,7.67-2.77q13.25-1.73,13.25-10A8,8,0,0,0,110,22.28a7.31,7.31,0,0,0-5.47-2.41c-1,0-1.51.34-1.51,1a1.42,1.42,0,0,0,.21.72,7,7,0,0,1,5,1.8,6,6,0,0,1,2,4.6,6.67,6.67,0,0,1-2.78,5.48,11.18,11.18,0,0,1-7.09,2.16,10.41,10.41,0,0,1-7-2.2,7.22,7.22,0,0,1-2.59-5.8c0-3.21,1.55-5.79,4.68-7.74S102.64,17,107.78,17q9.21,0,14,4.46t4.79,13.11v9a4.08,4.08,0,0,0,.22,1.65.73.73,0,0,0,.72.43,1,1,0,0,0,.93-.57,8.44,8.44,0,0,0,.51-2.23,5.09,5.09,0,0,1,.29-1.48.58.58,0,0,1,.57-.25H131a.65.65,0,0,1,.61.5,5.45,5.45,0,0,1,.18,1.66q0,5.76-3,8.89C126.85,54.25,124,55.29,120.31,55.29ZM108.72,39.74a1.4,1.4,0,0,0-1.16-.58c-.81,0-1.22.48-1.22,1.44v4.61c0,1,.41,1.44,1.22,1.44a1.39,1.39,0,0,0,1.16-.57Z"/><path class="cls-2" d="M134.78,11.52a8.31,8.31,0,0,0-.72-3.86,7,7,0,0,0-2.67-2.48,1.82,1.82,0,0,1-.61-.47.91.91,0,0,1-.11-.47V3.38q0-.72.87-.72h19a2.69,2.69,0,0,1,1.91.54A2.47,2.47,0,0,1,153,5v38.6a4.32,4.32,0,0,0,.21,1.65.73.73,0,0,0,.72.43.91.91,0,0,0,.9-.5,9.65,9.65,0,0,0,.54-2.3,5.48,5.48,0,0,1,.29-1.48.59.59,0,0,1,.57-.25h1.23a.64.64,0,0,1,.61.5,5.76,5.76,0,0,1,.18,1.73q0,5.76-3.1,8.86t-8.85,3.09q-5.55,0-8.53-3.13c-2-2.09-3-5.08-3-9Z"/><path class="cls-2" d="M161.56,17.85V14.32a12.62,12.62,0,0,1,4.39-10Q170.35.5,177.62.5A16.66,16.66,0,0,1,187,2.88a7.14,7.14,0,0,1,3.6,6.19A6,6,0,0,1,188,14.18a12,12,0,0,1-7.09,1.87,11.5,11.5,0,0,1-6.63-1.65,5.26,5.26,0,0,1-2.37-4.54,4.33,4.33,0,0,1,1.58-3.49A6.51,6.51,0,0,1,177.76,5a.62.62,0,0,0,.18-.36,3.25,3.25,0,0,0,0-.36c0-.68-.51-1-1.51-1a6.51,6.51,0,0,0-4.79,2,6.51,6.51,0,0,0-2,4.79q0,5.25,6.48,7.77H186c.58,0,.86.24.86.72v1.3c0,.48-.28.72-.86.72h-7.2a3.49,3.49,0,0,1,1.08,1.33,5.61,5.61,0,0,1,.29,2V52.12a2.43,2.43,0,0,1-.54,1.77,2.67,2.67,0,0,1-1.91.54H164a2.67,2.67,0,0,1-1.91-.54,2.43,2.43,0,0,1-.54-1.77V20.59h-4.82q-.87,0-.87-.72v-1.3q0-.72.87-.72Z"/><path class="cls-2" d="M201.52,17.85a2.67,2.67,0,0,1,1.91.54,2.43,2.43,0,0,1,.54,1.77V44.92a2.19,2.19,0,0,0,.36,1.3,1.16,1.16,0,0,0,1,.5,1.33,1.33,0,0,0,1.22-.57v-26a2.43,2.43,0,0,1,.54-1.77,2.67,2.67,0,0,1,1.91-.54h13a2.68,2.68,0,0,1,1.87.54,2.31,2.31,0,0,1,.58,1.77v23.4a4.32,4.32,0,0,0,.21,1.65.75.75,0,0,0,.72.43,1,1,0,0,0,.94-.57,8.14,8.14,0,0,0,.5-2.23,5.94,5.94,0,0,1,.29-1.48.61.61,0,0,1,.58-.25h1.22a.64.64,0,0,1,.61.5,5.45,5.45,0,0,1,.18,1.66q0,5.61-3.09,8.82c-2.07,2.13-4.92,3.2-8.57,3.2a12,12,0,0,1-6.12-1.58,10.38,10.38,0,0,1-4.18-4.47,11,11,0,0,1-4.46,4.47,13.28,13.28,0,0,1-6.48,1.58q-5.19,0-7.92-3.09c-1.82-2.07-2.74-5-2.74-8.79V26.71a8.26,8.26,0,0,0-.72-3.85,6.88,6.88,0,0,0-2.66-2.49,1.72,1.72,0,0,1-.61-.47.87.87,0,0,1-.11-.46v-.87c0-.48.29-.72.86-.72Z"/><path class="cls-2" d="M234.79,17.85q6.18,0,8.42,3.67a13.64,13.64,0,0,1,4.68-3.42,15.08,15.08,0,0,1,6-1.11,12.88,12.88,0,0,1,8.64,2.88,9.23,9.23,0,0,1,3.38,7.34,7.62,7.62,0,0,1-2.74,6.09,10.45,10.45,0,0,1-7,2.34,10.77,10.77,0,0,1-7-2.16,6.73,6.73,0,0,1-2.7-5.48,6,6,0,0,1,1.94-4.6,7,7,0,0,1,5-1.8,1.34,1.34,0,0,0,.22-.72c0-.67-.51-1-1.51-1a7.32,7.32,0,0,0-5.48,2.41,8.12,8.12,0,0,0-2.3,5.8,8.3,8.3,0,0,0,1.62,5.07,10.91,10.91,0,0,0,4.64,3.49,2.85,2.85,0,0,1,1.34,1,3.85,3.85,0,0,1,.32,1.83V52.12c0,1.54-.82,2.31-2.45,2.31H235.15a2,2,0,0,1-2.24-2.31V26.71a8.26,8.26,0,0,0-.72-3.85,6.88,6.88,0,0,0-2.66-2.49,1.72,1.72,0,0,1-.61-.47.87.87,0,0,1-.11-.46v-.87c0-.48.29-.72.86-.72Z"/></g></g></svg>